<svg width="24" height="24" viewBox="0 0 24 24" fill="none" xmlns="http://www.w3.org/2000/svg">
<path fill-rule="evenodd" clip-rule="evenodd" d="M7.17158 6.41421C8.73367 4.85211 11.2663 4.85212 12.8284 6.41421L17.5858 11.1716C19.1479 12.7337 19.1479 15.2663 17.5858 16.8284L16.8284 17.5858C15.2663 19.1479 12.7337 19.1479 11.1716 17.5858L6.41421 12.8284C4.85211 11.2663 4.85212 8.73367 6.41421 7.17157L7.17158 6.41421ZM11.4142 7.82843C10.6332 7.04738 9.36684 7.04738 8.58579 7.82842L7.82843 8.58579C7.04738 9.36684 7.04738 10.6332 7.82842 11.4142L12.5858 16.1716C13.3668 16.9526 14.6332 16.9526 15.4142 16.1716L16.1716 15.4142C16.9526 14.6332 16.9526 13.3668 16.1716 12.5858L11.4142 7.82843Z" fill="#5F7992"/>
<path fill-rule="evenodd" clip-rule="evenodd" d="M16.2929 16.2929C16.6834 15.9024 17.3166 15.9024 17.7071 16.2929L21.7071 20.2929C22.0976 20.6834 22.0976 21.3166 21.7071 21.7071C21.3166 22.0976 20.6834 22.0976 20.2929 21.7071L16.2929 17.7071C15.9024 17.3166 15.9024 16.6834 16.2929 16.2929Z" fill="#5F7992"/>
<path fill-rule="evenodd" clip-rule="evenodd" d="M14.7071 9.29289C15.0976 9.68342 15.0976 10.3166 14.7071 10.7071L10.7071 14.7071C10.3166 15.0976 9.68342 15.0976 9.29289 14.7071C8.90237 14.3166 8.90237 13.6834 9.29289 13.2929L13.2929 9.29289C13.6834 8.90237 14.3166 8.90237 14.7071 9.29289Z" fill="#5F7992"/>
<path fill-rule="evenodd" clip-rule="evenodd" d="M2.29289 2.29289C2.68342 1.90237 3.31658 1.90237 3.70711 2.29289L7.70711 6.29289C8.09763 6.68342 8.09763 7.31658 7.70711 7.70711C7.31658 8.09763 6.68342 8.09763 6.29289 7.70711L2.29289 3.70711C1.90237 3.31658 1.90237 2.68342 2.29289 2.29289Z" fill="#5F7992"/>
</svg>
