<svg width="24" height="24" viewBox="0 0 24 24" fill="none" xmlns="http://www.w3.org/2000/svg">
<path fill-rule="evenodd" clip-rule="evenodd" d="M5 1C5 0.447715 5.44772 0 6 0H18C18.5523 0 19 0.447715 19 1C19 1.55228 18.5523 2 18 2H6C5.44772 2 5 1.55228 5 1Z" fill="#5F7992"/>
<path fill-rule="evenodd" clip-rule="evenodd" d="M5 23C5 22.4477 5.44772 22 6 22H18C18.5523 22 19 22.4477 19 23C19 23.5523 18.5523 24 18 24H6C5.44772 24 5 23.5523 5 23Z" fill="#5F7992"/>
<path fill-rule="evenodd" clip-rule="evenodd" d="M3 7C3 5.34315 4.34315 4 6 4H18C19.6569 4 21 5.34315 21 7V17C21 18.6569 19.6569 20 18 20H6C4.34315 20 3 18.6569 3 17V7ZM6 6C5.44772 6 5 6.44772 5 7V17C5 17.5523 5.44772 18 6 18H18C18.5523 18 19 17.5523 19 17V7C19 6.44772 18.5523 6 18 6H6Z" fill="#5F7992"/>
<path fill-rule="evenodd" clip-rule="evenodd" d="M7 14.8C7 13.8059 7.80589 13 8.8 13H15.2C16.1941 13 17 13.8059 17 14.8V15C17 15.5523 16.5523 16 16 16H8C7.44772 16 7 15.5523 7 15V14.8Z" fill="#5F7992"/>
<path fill-rule="evenodd" clip-rule="evenodd" d="M12 12C13.1046 12 14 11.1046 14 10C14 8.89543 13.1046 8 12 8C10.8954 8 10 8.89543 10 10C10 11.1046 10.8954 12 12 12Z" fill="#5F7992"/>
</svg>
