<svg width="24" height="24" viewBox="0 0 24 24" fill="none" xmlns="http://www.w3.org/2000/svg">
<path fill-rule="evenodd" clip-rule="evenodd" d="M6 5C5.44772 5 5 5.44772 5 6V18C5 18.5523 5.44772 19 6 19H18C18.5523 19 19 18.5523 19 18V11.5034C19 10.9511 19.4477 10.5034 20 10.5034C20.5523 10.5034 21 10.9511 21 11.5034V18C21 19.6569 19.6569 21 18 21H6C4.34315 21 3 19.6569 3 18V6C3 4.34315 4.34315 3 6 3H16.4972C17.0495 3 17.4972 3.44772 17.4972 4C17.4972 4.55228 17.0495 5 16.4972 5H6Z" fill="#5F7992"/>
<path fill-rule="evenodd" clip-rule="evenodd" d="M22.7071 3.29289C23.0976 3.68342 23.0976 4.31658 22.7071 4.70711L12.7071 14.7071C12.3166 15.0976 11.6834 15.0976 11.2929 14.7071L8.29289 11.7071C7.90237 11.3166 7.90237 10.6834 8.29289 10.2929C8.68342 9.90237 9.31658 9.90237 9.70711 10.2929L12 12.5858L21.2929 3.29289C21.6834 2.90237 22.3166 2.90237 22.7071 3.29289Z" fill="#5F7992"/>
</svg>
